<svg width="1264" height="597" viewBox="0 0 1264 597" fill="none" xmlns="http://www.w3.org/2000/svg">
<rect width="1264" height="597" rx="79" fill="#6D00FF"/>
<path d="M0 344.369C0 344.369 84.8859 401.257 145 411.339C240.311 427.323 289.461 330.472 385 344.369C476.542 357.685 506.105 450.136 597 468.741C731.502 496.273 798.062 363.293 934.5 360.514C1066.32 357.829 1264 448.411 1264 448.411V489C1264 532.63 1228.63 568 1185 568H79C35.3695 568 0 532.63 0 489V344.369Z" fill="#7C2CEB"/>
<path d="M0 410C0 410 84.8859 457.57 145 466C240.311 479.366 289.461 398.379 385 410C476.542 421.135 506.105 498.442 597 514C731.502 537.022 798.062 425.824 934.5 423.5C1066.32 421.255 1264 497 1264 497V518C1264 561.63 1228.63 597 1185 597H79C35.3695 597 0 561.63 0 518V410Z" fill="#400691"/>
</svg>
